# xmcd
#
# Track frame offsets:
#	150
#	15505
#	30467
#	41551
#	54817
#	73795
#	85210
#	106104
#	126043
#	150371
#	164865
#
# Disc length: 2379 seconds
#
# Revision: 1
# Processed by: cddbd v1.5.1PL0 Copyright (c) Steve Scherf et al.
# Submitted via: audiograbber 1.83.01
#
DISCID=7e09490b
DTITLE=Johnny 'Guitar' Blommer - Still Cadillacin'
DYEAR=2004
DGENRE=Blues
TTITLE0=Johnny's Boogie
TTITLE1=Gangster of Love
TTITLE2=Lonesome
TTITLE3=Got To Have You
TTITLE4=Fool's Paradise
TTITLE5=Thought I Saw You
TTITLE6=Still Cadillacin'
TTITLE7=Devil Woman
TTITLE8=Always Singin' The Blues
TTITLE9=Mean 'Ol Life
TTITLE10=Amazing Grace
EXTD=ARV Records\n96582 E. 33rd Street\nTucson, AZ 85748\n1-520-290-9256\n\nwww
EXTD=thenewjohnnyguitar.com
EXTT0=
EXTT1=
EXTT2=
EXTT3=
EXTT4=
EXTT5=
EXTT6=
EXTT7=
EXTT8=
EXTT9=
EXTT10=
PLAYORDER=
